<?xml version="1.0" encoding="UTF-8"?>
<svg width="72px" height="72px" viewBox="0 0 72 72" version="1.1" xmlns="http://www.w3.org/2000/svg" xmlns:xlink="http://www.w3.org/1999/xlink">
    <!-- Generator: Sketch 52.5 (67469) - http://www.bohemiancoding.com/sketch -->
    <title>smile</title>
    <desc>Created with Sketch.</desc>
    <g id="Site" stroke="none" stroke-width="1" fill="none" fill-rule="evenodd">
        <g id="Desktop-HD" transform="translate(-29.000000, -39.000000)">
            <g id="smile" transform="translate(65.000000, 75.000000) scale(-1, 1) translate(-65.000000, -75.000000) translate(30.000000, 40.000000)">
                <g>
                    <path d="M23.8260857,24.0365604 C23.604689,23.9825051 23.347238,23.9867384 23.0495073,24.0603317 C21.3679068,24.4761669 21.0541206,28.5703689 21.0022924,30.1255991 C20.9439857,31.8814201 22.0033659,34.1657458 23.559621,32.309955 C24.6111143,31.0562624 26.0566711,24.5816725 23.8260857,24.0365604" id="Fill-1" fill="#231F20"></path>
                    <path d="M48.8260919,30.0365612 C48.6046964,29.9825047 48.346965,29.9867381 48.0492359,30.060333 C46.3676442,30.476177 46.0538598,34.5704651 46.0023135,36.125728 C45.9437254,37.8812603 47.0033817,40.1656341 48.5596286,38.3101299 C49.6111164,37.0560852 51.0566655,30.5816848 48.8260919,30.0365612" id="Fill-3" fill="#231F20"></path>
                    <path d="M22.9640146,41.4854842 C31.3048692,43.2552888 39.5979447,45.2541415 47.8286593,47.4731023 C49.9262831,48.0384779 52.4160673,48.5532965 51.9410692,51.2525492 C51.4350458,54.129368 48.7488712,56.3717577 46.4775054,57.9834174 C43.9656932,59.7652448 41.0732,61.0217722 38.0423338,61.6081105 C29.9639536,63.1716794 21.9681009,59.984428 17.2193611,53.3349443 C15.9919983,51.616005 10.5005117,41.0400273 14.3461036,40.0896166 C15.1223578,39.8978698 15.9380142,40.0504658 16.7226453,40.2058362 C18.8059974,40.6183076 20.8865573,41.0446514 22.9640146,41.4854842" id="Fill-5" fill="#231F20"></path>
                    <path d="M20.0160522,52.4715761 C20.0163578,52.4722292 22.9056884,58.0898586 29.0308861,59.4923883 C36.517782,61.2067727 40.936273,58.029447 40.9488021,58.022916 C41.3430101,57.8227412 39.3368275,55.2527974 39.1641706,55.0304173 C37.2655549,52.5842357 34.3887533,50.9681427 31.4923941,50.3150438 C29.2863573,49.8177091 26.9975063,49.9417979 24.8052209,50.4590521 C24.355396,50.5651807 19.6927405,51.8534181 20.0160522,52.4715761" id="Fill-7" fill="#FFFFFF"></path>
                    <path d="M70,34.999844 C70,54.3299415 54.3299415,70 34.999844,70 C15.6700585,70 0,54.3299415 0,34.999844 C0,15.6700585 15.6700585,0 34.999844,0 C54.3299415,0 70,15.6700585 70,34.999844 Z" id="Stroke-9" stroke="#000000" stroke-width="2"></path>
                </g>
            </g>
        </g>
    </g>
</svg>